<?xml version="1.0" encoding="utf-8"?>
<!-- Generator: Adobe Illustrator 27.7.0, SVG Export Plug-In . SVG Version: 6.00 Build 0)  -->
<svg version="1.1" id="Réteg_1" xmlns="http://www.w3.org/2000/svg" xmlns:xlink="http://www.w3.org/1999/xlink" x="0px" y="0px"
	 viewBox="0 0 35.5 35.5" style="enable-background:new 0 0 35.5 35.5;" xml:space="preserve">
<style type="text/css">
	.st0{fill:#E6E6E6;}
	.st1{fill:#1A1A1A;}
</style>
<g>
	<circle class="st0" cx="17.7" cy="17.7" r="17.7"/>
	<path class="st1" d="M10.2,11.8v15.4c0,1.5,1.2,2.6,2.6,2.6h9.8c1.4,0,2.6-1.2,2.6-2.6V11.8H10.2z M22.7,23.4l-2.1,2.1l-2.9-2.9
		l-2.9,2.9l-2.1-2.1l2.9-2.9l-2.9-2.9l2.1-2.1l2.9,2.9l2.9-2.9l2.1,2.1l-2.9,2.9L22.7,23.4z"/>
	<path class="st1" d="M27,7.8V10H8.5V7.8H13l1-1c0.4-0.4,0.9-0.6,1.4-0.6h4.4c0.5,0,0.9,0.2,1.3,0.5l1.3,1.1H27z"/>
</g>
</svg>
