<?xml version="1.0" encoding="utf-8"?>
<!-- Generator: Adobe Illustrator 27.7.0, SVG Export Plug-In . SVG Version: 6.00 Build 0)  -->
<svg version="1.1" id="Réteg_1" xmlns="http://www.w3.org/2000/svg" xmlns:xlink="http://www.w3.org/1999/xlink" x="0px" y="0px"
	 viewBox="0 0 17.2 17.8" style="enable-background:new 0 0 17.2 17.8;" xml:space="preserve">
<style type="text/css">
	.st0{fill:#212121;}
</style>
<g>
	<path class="st0" d="M15.6,9c0.1,3.8-2.7,7-6.5,7.3c-1.9,0.2-3.7-0.4-5.2-1.6c-1.4-1.2-2.3-2.9-2.5-4.8C1.2,6,4.1,2.5,8,2.2
		c1.9-0.2,3.7,0.4,5.1,1.6l-2.6,2.7l6.4-0.1L16.8,0l-2.7,2.7c-1.7-1.5-4-2.2-6.3-2C3.1,1.1-0.4,5.3,0,10c0.2,2.3,1.3,4.4,3,5.8
		c1.6,1.3,3.5,2,5.5,2c0.2,0,0.5,0,0.7,0c4.6-0.4,8-4.3,7.9-8.8L15.6,9z"/>
	<polygon class="st0" points="8.1,4.7 8.1,9.5 11.9,11.9 12.4,11 9.1,9 9.1,4.7 	"/>
</g>
</svg>
