<?xml version="1.0" encoding="utf-8"?>
<!-- Generator: Adobe Illustrator 27.7.0, SVG Export Plug-In . SVG Version: 6.00 Build 0)  -->
<svg version="1.1" id="Réteg_1" xmlns="http://www.w3.org/2000/svg" xmlns:xlink="http://www.w3.org/1999/xlink" x="0px" y="0px"
	 viewBox="0 0 21.4 21.4" style="enable-background:new 0 0 21.4 21.4;" xml:space="preserve">
<style type="text/css">
	.st0{fill:#656564;}
</style>
<path class="st0" d="M21.4,13c0,0.7-0.3,1.3-0.7,1.8c-0.5,0.5-1.1,0.7-1.8,0.7h-2v4.1c0,1-0.8,1.8-1.8,1.8h-3.7V20
	c0-0.8-0.3-1.6-0.9-2.1c-0.5-0.5-1.3-0.9-2.1-0.9c-1.6,0-2.9,1.3-2.9,2.9v1.4H1.8c-1,0-1.8-0.8-1.8-1.8v-3.7h1.4
	c0.8,0,1.5-0.3,2.1-0.9C4,14.5,4.4,13.8,4.4,13c0-1.6-1.3-2.9-3-2.9H0V6.3c0-1,0.8-1.8,1.8-1.8h4.1v-2C5.9,1.1,7.1,0,8.5,0
	c0.7,0,1.3,0.3,1.8,0.7C10.7,1.2,11,1.8,11,2.5v2h4.1c1,0,1.8,0.8,1.8,1.8v4.1h2C20.3,10.4,21.4,11.6,21.4,13z"/>
</svg>
