<?xml version="1.0" encoding="utf-8"?>
<!-- Generator: Adobe Illustrator 27.7.0, SVG Export Plug-In . SVG Version: 6.00 Build 0)  -->
<svg version="1.1" id="Réteg_1" xmlns="http://www.w3.org/2000/svg" xmlns:xlink="http://www.w3.org/1999/xlink" x="0px" y="0px"
	 viewBox="0 0 24.1 24.1" style="enable-background:new 0 0 24.1 24.1;" xml:space="preserve">
<style type="text/css">
	.st0{fill:#FDD600;}
</style>
<path class="st0" d="M21.8,24.1H2.3c-1.3,0-2.3-1-2.3-2.3V2.3C0,1,1,0,2.3,0h19.5c1.3,0,2.3,1,2.3,2.3v19.5
	C24.1,23.1,23.1,24.1,21.8,24.1z"/>
<g>
	<path d="M5.9,13.3h12.4c0.8,0,1.3,1,0.7,1.7l-6.4,7.3c-0.3,0.3-0.7,0.3-1,0L5.1,15C4.6,14.4,5,13.3,5.9,13.3z"/>
	<path d="M18.2,10.7H5.9c-0.8,0-1.3-1-0.7-1.7l6.4-7.3c0.3-0.3,0.7-0.3,1,0l6.4,7.3C19.5,9.7,19.1,10.7,18.2,10.7z"/>
</g>
</svg>
