<?xml version="1.0" encoding="utf-8"?>
<!-- Generator: Adobe Illustrator 27.7.0, SVG Export Plug-In . SVG Version: 6.00 Build 0)  -->
<svg version="1.1" id="Réteg_1" xmlns="http://www.w3.org/2000/svg" xmlns:xlink="http://www.w3.org/1999/xlink" x="0px" y="0px"
	 viewBox="0 0 17 17" style="enable-background:new 0 0 17 17;" xml:space="preserve">
<style type="text/css">
	.st0{fill:#333333;}
	.st1{opacity:0.5;}
	.st2{clip-path:url(#SVGID_00000079443722299738396420000001241499185964511904_);}
	.st3{fill:#FFFFFF;}
</style>
<g>
	<path class="st0" d="M8.5,17L8.5,17C3.81,17,0,13.19,0,8.5v0C0,3.81,3.81,0,8.5,0h0C13.19,0,17,3.81,17,8.5v0
		C17,13.19,13.19,17,8.5,17z"/>
	<g class="st1">
		<defs>
			<circle id="SVGID_1_" class="st1" cx="8.5" cy="8.5" r="8.5"/>
		</defs>
		<clipPath id="SVGID_00000004523689889823835380000002612775479027521974_">
			<use xlink:href="#SVGID_1_"  style="overflow:visible;"/>
		</clipPath>
		<g style="clip-path:url(#SVGID_00000004523689889823835380000002612775479027521974_);">
			<g class="st1">
				<path class="st3" d="M3.15,30.41c1.04,3.19,3.47,6.83,8.78,9.75c1.09,0.6,2.46,0.2,3.06-0.89c0.6-1.09,0.2-2.46-0.89-3.06
					c-4.25-2.33-6.64-5.39-7.09-9.1c-0.06-0.5-0.08-0.99-0.07-1.45c2.74,2.27,7.19,5.01,13.15,5.6c1.24,0.12,2.34-0.78,2.46-2.02
					c0.12-1.24-0.78-2.34-2.02-2.46c-5.12-0.5-8.93-3.05-11.11-4.93c2.27-0.61,5.99-0.83,10.91,1.52c1.12,0.54,2.47,0.06,3-1.06
					c0.54-1.12,0.06-2.47-1.06-3.01c-5.74-2.74-10.35-2.66-13.49-1.93c0.96-2.28,3.55-5.63,10.48-5.51
					c1.24,0.02,2.27-0.97,2.29-2.22c0.02-1.24-0.97-2.27-2.22-2.29C12.43,7.24,8.33,9.99,6.07,13.09c0.05-0.82,0.21-1.65,0.5-2.47
					c0.88-2.45,2.91-4.39,6.05-5.74c1.14-0.49,1.67-1.82,1.18-2.96c-0.49-1.14-1.82-1.67-2.96-1.18c-4.35,1.87-7.22,4.7-8.52,8.4
					c-0.44,1.25-0.67,2.51-0.74,3.72c-2.3-4.74-0.17-7.78-0.02-7.99C2.3,3.89,2.13,2.49,1.16,1.72c-0.98-0.77-2.4-0.6-3.16,0.38
					c-0.2,0.26-1.97,2.62-2,6.43c-0.01,1.19,0.16,2.62,0.68,4.22c0.33,1,0.8,2.07,1.45,3.2c-5.38-3.67-9.5-8.4-12.29-14.12
					c-2.71-5.57-3.08-10.05-3.08-10.11c-0.06-0.76-0.72-1.34-1.48-1.28c-0.76,0.05-1.34,0.72-1.28,1.48c0.01,0.14,0.2,2.65,1.4,6.29
					c0.47,1.42,1.08,3.02,1.9,4.71c2.27,4.7,6.51,10.95,14.24,15.95c-3.26,1.32-5.88,4.15-7.8,8.44c-0.24,0.53-0.25,1.11-0.09,1.62
					c0.19,0.58,0.62,1.09,1.22,1.36c1.14,0.51,2.47,0,2.98-1.14c1.34-2.99,3.01-4.98,4.99-5.93c-0.37,0.52-0.69,1.08-0.96,1.68
					c-2.69,5.83,0.24,13.08,0.36,13.38c0.47,1.15,1.79,1.7,2.94,1.23s1.7-1.79,1.23-2.94c-0.02-0.06-2.3-5.76-0.43-9.8
					c0.14-0.29,0.3-0.56,0.47-0.82c0,0.46,0.03,0.95,0.08,1.45C2.61,28.33,2.8,29.34,3.15,30.41z"/>
				<circle class="st3" cx="4.28" cy="-2.04" r="2.79"/>
				
					<ellipse transform="matrix(0.8535 -0.5211 0.5211 0.8535 -9.6741 18.3069)" class="st3" cx="27.72" cy="26.36" rx="2.79" ry="2.79"/>
				
					<ellipse transform="matrix(0.9504 -0.311 0.311 0.9504 -11.305 -1.4267)" class="st3" cx="-10.13" cy="34.73" rx="2.79" ry="2.79"/>
			</g>
			<g class="st1">
				<path class="st3" d="M3.15-13.41c1.04-3.19,3.47-6.83,8.78-9.75c1.09-0.6,2.46-0.2,3.06,0.89c0.6,1.09,0.2,2.46-0.89,3.06
					c-4.25,2.33-6.64,5.39-7.09,9.1c-0.06,0.5-0.08,0.99-0.07,1.45c2.74-2.27,7.19-5.01,13.15-5.6c1.24-0.12,2.34,0.78,2.46,2.02
					c0.12,1.24-0.78,2.34-2.02,2.46c-5.12,0.5-8.93,3.05-11.11,4.93c2.27,0.61,5.99,0.83,10.91-1.52c1.12-0.54,2.47-0.06,3,1.06
					c0.54,1.12,0.06,2.47-1.06,3.01C16.54,0.44,11.93,0.35,8.79-0.38c0.96,2.28,3.55,5.63,10.48,5.51c1.24-0.02,2.27,0.97,2.29,2.22
					c0.02,1.24-0.97,2.27-2.22,2.29C12.43,9.76,8.33,7.01,6.07,3.91c0.05,0.82,0.21,1.65,0.5,2.47c0.88,2.45,2.91,4.39,6.05,5.74
					c1.14,0.49,1.67,1.82,1.18,2.96c-0.49,1.14-1.82,1.67-2.96,1.18c-4.35-1.87-7.22-4.7-8.52-8.4C1.87,6.61,1.65,5.35,1.57,4.14
					c-2.3,4.74-0.17,7.78-0.02,7.99c0.75,0.98,0.58,2.38-0.39,3.14c-0.98,0.77-2.4,0.6-3.16-0.38c-0.2-0.26-1.97-2.62-2-6.43
					c-0.01-1.19,0.16-2.62,0.68-4.22c0.33-1,0.8-2.07,1.45-3.2c-5.38,3.67-9.5,8.4-12.29,14.12c-2.71,5.57-3.08,10.05-3.08,10.11
					c-0.06,0.76-0.72,1.34-1.48,1.28c-0.76-0.05-1.34-0.72-1.28-1.48c0.01-0.14,0.2-2.65,1.4-6.29c0.47-1.42,1.08-3.02,1.9-4.71
					c2.27-4.7,6.51-10.95,14.24-15.95c-3.26-1.32-5.88-4.15-7.8-8.44c-0.24-0.53-0.25-1.11-0.09-1.62c0.19-0.58,0.62-1.09,1.22-1.36
					c1.14-0.51,2.47,0,2.98,1.14c1.34,2.99,3.01,4.98,4.99,5.93c-0.37-0.52-0.69-1.08-0.96-1.68c-2.69-5.83,0.24-13.08,0.36-13.38
					c0.47-1.15,1.79-1.7,2.94-1.23c1.15,0.47,1.7,1.79,1.23,2.94c-0.02,0.06-2.3,5.76-0.43,9.8c0.14,0.29,0.3,0.56,0.47,0.82
					c0-0.46,0.03-0.95,0.08-1.45C2.61-11.33,2.8-12.34,3.15-13.41z"/>
				<circle class="st3" cx="4.28" cy="19.04" r="2.79"/>
				
					<ellipse transform="matrix(0.5211 -0.8535 0.8535 0.5211 21.265 19.1789)" class="st3" cx="27.72" cy="-9.36" rx="2.79" ry="2.79"/>
				
					<ellipse transform="matrix(0.311 -0.9504 0.9504 0.311 9.875 -21.8388)" class="st3" cx="-10.13" cy="-17.73" rx="2.79" ry="2.79"/>
			</g>
		</g>
	</g>
	<g>
		<path class="st3" d="M7.74,12.95L5.47,9.57v3.38H3.03V5.16h2.44v3.28l2.23-3.28h2.76L7.78,8.89l2.86,4.06H7.74z"/>
		<path class="st3" d="M9.3,3.07v1.64l2.85-1.04v-1.8L9.3,3.07z M10.63,12.96h2.75v-1.97h-2.75V12.96z M10.63,5.16V7.1h2.75V5.16
			H10.63z M13.05,8.05H10.3V9.9h2.75V8.05z"/>
	</g>
</g>
</svg>
