<?xml version="1.0" encoding="UTF-8"?>
<svg id="Layer_1" xmlns="http://www.w3.org/2000/svg" version="1.1" viewBox="0 0 28.35 28.35">
  <!-- Generator: Adobe Illustrator 30.3.0, SVG Export Plug-In . SVG Version: 2.1.3 Build 182)  -->
  <defs>
    <style>
      .st0 {
        fill: #fca326;
      }

      .st1 {
        fill: #fff;
      }

      .st2 {
        fill: #fc6d26;
      }

      .st3 {
        fill: #e24329;
      }
    </style>
  </defs>
  <rect class="st1" x="0" width="28.35" height="28.35" rx="3.75" ry="3.75"/>
  <g>
    <path class="st3" d="M14.17,24.64l4.18-12.88h-8.37l4.18,12.88h0Z"/>
    <path class="st2" d="M14.17,24.64l-4.18-12.88h-5.86l10.05,12.88Z"/>
    <path class="st0" d="M4.13,11.76l-1.27,3.91c-.12.36.01.75.31.97l11,7.99L4.13,11.76h0Z"/>
    <path class="st3" d="M4.13,11.76h5.86l-2.52-7.76c-.13-.4-.69-.4-.82,0l-2.52,7.76h0Z"/>
    <path class="st2" d="M14.17,24.64l4.18-12.88h5.86l-10.05,12.88h0Z"/>
    <path class="st0" d="M24.22,11.76l1.27,3.91c.12.36-.01.75-.31.97l-11,7.99,10.05-12.88h0Z"/>
    <path class="st3" d="M24.22,11.76h-5.86l2.52-7.76c.13-.4.69-.4.82,0l2.52,7.76h0Z"/>
  </g>
</svg>